<?xml version="1.0" encoding="UTF-8" standalone="no"?>
<svg width="70px" height="10px" viewBox="0 0 70 10" version="1.1" xmlns="http://www.w3.org/2000/svg" xmlns:xlink="http://www.w3.org/1999/xlink" xmlns:sketch="http://www.bohemiancoding.com/sketch/ns">
    <!-- Generator: Sketch 3.4.2 (15857) - http://www.bohemiancoding.com/sketch -->
    <title>stars</title>
    <desc>Created with Sketch.</desc>
    <defs>
        <linearGradient x1="105.771062%" y1="16.5357761%" x2="7.17702223%" y2="70.582003%" id="linearGradient-1">
            <stop stop-color="#FBDA61" offset="0%"></stop>
            <stop stop-color="#F76B1C" offset="100%"></stop>
        </linearGradient>
        <polygon id="path-2" points="65 8.29179607 61.9098301 10 62.5 6.38196601 60 3.81966011 63.454915 3.29179607 65 0 66.545085 3.29179607 70 3.81966011 67.5 6.38196601 68.0901699 10 "></polygon>
    </defs>
    <g id="Responsive-Article" stroke="none" stroke-width="1" fill="none" fill-rule="evenodd" sketch:type="MSPage">
        <g id="Article-With-Icon---1024-" sketch:type="MSArtboardGroup" transform="translate(-437.000000, -4721.000000)">
            <g id="Group-+-Мобильное-приложение" sketch:type="MSLayerGroup" transform="translate(0.000000, 4530.000000)">
                <g id="Group">
                    <g id="Group-Copy-8-+-Group">
                        <g id="Group-Copy-8">
                            <g id="Group" transform="translate(437.000000, 186.000000)">
                                <g id="stars" transform="translate(0.000000, 5.000000)">
                                    <polygon id="Star-1-Copy-2" fill="#FFFFFF" sketch:type="MSShapeGroup" points="35 8.29179607 31.9098301 10 32.5 6.38196601 30 3.81966011 33.454915 3.29179607 35 0 36.545085 3.29179607 40 3.81966011 37.5 6.38196601 38.0901699 10 "></polygon>
                                    <polygon id="Star-1-Copy-3" fill="#FFFFFF" sketch:type="MSShapeGroup" points="20 8.29179607 16.9098301 10 17.5 6.38196601 15 3.81966011 18.454915 3.29179607 20 0 21.545085 3.29179607 25 3.81966011 22.5 6.38196601 23.0901699 10 "></polygon>
                                    <polygon id="Star-1-Copy-4" fill="#FFFFFF" sketch:type="MSShapeGroup" points="5 8.29179607 1.90983006 10 2.5 6.38196601 0 3.81966011 3.45491503 3.29179607 5 0 6.54508497 3.29179607 10 3.81966011 7.5 6.38196601 8.09016994 10 "></polygon>
                                    <polygon id="Star-1-Copy-2" fill="#FFFFFF" sketch:type="MSShapeGroup" points="50 8.29179607 46.9098301 10 47.5 6.38196601 45 3.81966011 48.454915 3.29179607 50 0 51.545085 3.29179607 55 3.81966011 52.5 6.38196601 53.0901699 10 "></polygon>
                                    <mask id="mask-3" sketch:name="Mask" fill="white">
                                        <use xlink:href="#path-2"></use>
                                    </mask>
                                    <use id="Mask" fill="#00000" sketch:type="MSShapeGroup" xlink:href="#path-2"></use>
                                    <rect id="Rectangle-255" fill="#FFFFFF" sketch:type="MSShapeGroup" mask="url(#mask-3)" x="60" y="0" width="6" height="10"></rect>
                                </g>
                            </g>
                        </g>
                    </g>
                </g>
            </g>
        </g>
    </g>
</svg>